<?xml version="1.0" encoding="UTF-8"?>
<svg id="Layer_1" xmlns="http://www.w3.org/2000/svg" version="1.1" viewBox="0 0 49.3 67.9">
  <!-- Generator: Adobe Illustrator 29.0.0, SVG Export Plug-In . SVG Version: 2.1.0 Build 186)  -->
  <defs>
    <style>
      .st0 {
        fill: currentColor;
      }
    </style>
  </defs>
  <path class="st0" d="M44.8,13.9C40.7,6.3,33.1,1.7,24.4,1.7,11.5,1.7,1.1,12.2,1.1,25s1.3,8.9,3.8,12.7l17.8,27.1c.4.6,1,.9,1.7.9s1.3-.3,1.7-.9l17.8-27c4.8-7.2,5.2-16.2,1.1-23.8ZM24.4,33c-5.2,0-9.5-4.3-9.5-9.5s4.3-9.5,9.5-9.5,9.5,4.3,9.5,9.5c0,5.2-4.3,9.5-9.5,9.5Z"/>
</svg>